<?xml version="1.0" encoding="utf-8"?>
<!-- Generator: Adobe Illustrator 19.2.1, SVG Export Plug-In . SVG Version: 6.00 Build 0)  -->
<!DOCTYPE svg PUBLIC "-//W3C//DTD SVG 1.1//EN" "http://www.w3.org/Graphics/SVG/1.1/DTD/svg11.dtd">
<svg version="1.1" id="Layer_1" xmlns="http://www.w3.org/2000/svg" xmlns:xlink="http://www.w3.org/1999/xlink" x="0px" y="0px"
	 viewBox="0 0 1000 1000" style="enable-background:new 0 0 1000 1000;" xml:space="preserve">
<style type="text/css">
	.st0{fill:#808080;}
	.st1{fill:white;}
	.st2{fill:white;}
</style>
<g>
	<path class="st0" d="M499.5,995.5c-163.5,0-326.9,0-490.4,0.1c-3.6,0-4.4-0.8-4.4-4.4c0.1-327.3,0.1-654.5,0-981.8
		c0-3.6,0.8-4.4,4.4-4.4C336.3,5,663.6,5,990.8,4.9c3.6,0,4.4,0.8,4.4,4.4c-0.1,327.3-0.1,654.5,0,981.8c0,3.6-0.8,4.4-4.4,4.4
		C827.1,995.5,663.3,995.5,499.5,995.5z M449.1,376.1c17,33.2,33.6,65.7,50.2,98.1c13.5,26.3,27,52.6,40.4,79
		c1.7,3.4,3.6,4.5,7.4,4.4c12.4-0.3,24.8-0.1,37.2-0.2c29.7-0.1,59.3-0.1,89-0.2c1.7,0,5.2,1.4,2.9-3.1
		c-15.9-30.9-31.7-61.8-47.5-92.7c-15.3-30-30.7-59.9-46-89.9c-23.7-46.5-47.4-92.9-71.1-139.4c-20.2-39.6-40.4-79.3-60.6-118.9
		c-0.7-1.4-1.1-3.2-2.8-4.2c-75.6,149.7-151.1,299.2-226.7,449c1.7,0.1,2.9,0.3,4.1,0.3c42.7,0,85.4-0.2,128.1-0.1
		c3.2,0,4.4-1.4,5.6-3.9c20.5-40.8,41.1-81.6,61.6-122.4C430.1,413.6,439.4,395.3,449.1,376.1z M610.2,892.6c1.2-2.1,2-3.3,2.6-4.5
		C667.4,779.8,722,671.5,776.6,563.3c2.8-5.5,2.7-5.6-3.7-5.5c-29.7,0.1-59.3,0.3-89,0.2c-4.3,0-6.6,1.3-8.5,5.2
		c-20.8,41.8-41.9,83.5-62.9,125.2c-0.7,1.5-0.9,3.4-3.1,4.2c-1-1.9-2-3.7-2.9-5.6c-21.2-41.4-42.4-82.9-63.5-124.3
		c-1.6-3.2-3.4-4.3-7-4.3c-30.3,0.2-60.6,0.1-90.9,0.1c-5.6,0-5.7,0.1-3.1,5c18.6,35.8,36.4,71.9,54.9,107.7
		c32,61.8,63.4,123.9,95,185.8C597.8,868.5,603.8,880.1,610.2,892.6z"/>
	<path class="st1" d="M449.1,376.1c-9.7,19.2-19,37.5-28.2,55.9c-20.6,40.8-41.1,81.6-61.6,122.4c-1.2,2.5-2.4,3.9-5.6,3.9
		c-42.7-0.1-85.4,0-128.1,0.1c-1.2,0-2.5-0.2-4.1-0.3c75.7-149.8,151.1-299.3,226.7-449c1.7,1,2.1,2.8,2.8,4.2
		c20.2,39.6,40.4,79.3,60.6,118.9c23.7,46.5,47.4,92.9,71.1,139.4c15.3,30,30.6,59.9,46,89.9c15.8,30.9,31.6,61.9,47.5,92.7
		c2.3,4.5-1.2,3.1-2.9,3.1c-29.7,0.1-59.3,0.2-89,0.2c-12.4,0-24.8-0.1-37.2,0.2c-3.7,0.1-5.6-1-7.4-4.4
		c-13.3-26.4-26.9-52.7-40.4-79C482.6,441.8,466,409.3,449.1,376.1z"/>
	<path class="st2" d="M610.2,892.6c-6.4-12.5-12.4-24.1-18.3-35.7c-31.6-61.9-63-124-95-185.8c-18.5-35.8-36.3-72-54.9-107.7
		c-2.6-5-2.5-5,3.1-5c30.3,0,60.6,0,90.9-0.1c3.6,0,5.4,1.1,7,4.3c21.1,41.5,42.3,82.9,63.5,124.3c0.9,1.9,1.9,3.7,2.9,5.6
		c2.2-0.8,2.4-2.7,3.1-4.2c21-41.7,42.1-83.4,62.9-125.2c2-3.9,4.2-5.2,8.5-5.2c29.7,0.1,59.3-0.1,89-0.2c6.5,0,6.5,0.1,3.7,5.5
		C722,671.5,667.4,779.8,612.8,888C612.2,889.3,611.4,890.5,610.2,892.6z"/>
</g>
</svg>
