<svg version="1.1" xmlns="http://www.w3.org/2000/svg" xmlns:xlink="http://www.w3.org/1999/xlink" x="0px" y="0px" viewBox="0 0 1000 1000" enable-background="new 0 0 1000 1000" xml:space="preserve">
<style type="text/css">
	.main{fill:#808080;}
</style>
    <g><path class="main" d="M826.7,10H173.3C83.5,10,10,83.5,10,173.3v653.3C10,916.5,83.5,990,173.3,990h653.3c89.8,0,163.3-73.5,163.3-163.4V173.3C990,83.5,916.5,10,826.7,10L826.7,10z M285.6,653.1c-84.6,0-153.1-68.6-153.1-153.1c0-84.6,68.6-153.1,153.1-153.1c84.6,0,153.1,68.6,153.1,153.1C438.8,584.6,370.2,653.1,285.6,653.1z M714.4,653.1c-84.6,0-153.1-68.6-153.1-153.1c0-84.6,68.6-153.1,153.1-153.1S867.5,415.4,867.5,500C867.5,584.6,798.9,653.1,714.4,653.1z"/></g>
</svg>
