<?xml version="1.0" encoding="utf-8"?>
<!-- Generator: Adobe Illustrator 20.1.0, SVG Export Plug-In . SVG Version: 6.00 Build 0)  -->
<svg version="1.1" id="Capa_1" xmlns="http://www.w3.org/2000/svg" xmlns:xlink="http://www.w3.org/1999/xlink" x="0px" y="0px"
	 viewBox="0 0 70 70" style="enable-background:new 0 0 70 70;" xml:space="preserve">
<style type="text/css">
	.st0{fill:#808080;}
</style>
<g>
	<path class="st0" d="M35,3C17.3,3,3,17.3,3,35s14.3,32,32,32s32-14.3,32-32S52.7,3,35,3z M48.83,12.47v0.333l-0.206,31.343
		c-0.016,0.481-0.06,1.097-0.112,1.814c-0.026,0.365-0.055,0.763-0.084,1.195c-0.105,1.57-0.615,3.367-1.477,5.198
		c-0.881,1.873-2.219,3.39-4.091,4.637c-1.958,1.305-4.529,1.939-7.86,1.939c-3.282,0-6.105-0.828-8.403-2.47
		c-2.329-1.775-3.616-4.64-3.826-8.515l-0.019-0.348l-0.029-0.527h0.528H23.6h2.2h0.297h0.449l0.048,0.447l0.032,0.295
		c0.279,2.605,1.21,4.496,2.779,5.629c1.522,1.164,3.418,1.729,5.796,1.729c2.286,0,4.198-0.503,5.551-1.468
		c1.272-0.818,2.264-1.898,2.786-3.029c0.585-1.366,0.958-2.601,1.136-3.742c0.097-1.166,0.097-2.054,0.097-2.531v-4.407
		c-2.294,3.392-5.604,5.152-9.87,5.237c-4.546,0-7.878-1.655-10.18-5.054c-2.157-3.081-3.25-7.11-3.25-11.976
		c0-4.655,1.16-8.65,3.443-11.865c2.248-3.319,5.635-5.056,10.083-5.165H35c2.573,0,4.849,0.667,6.969,2.045
		c1.174,0.803,2.178,1.829,3.001,3.064V12.8v-0.33v-0.5h0.5h0.33H48h0.33h0.5V12.47z"/>
	<path class="st0" d="M34.9,14.1c-3.5,0.1-6.2,1.6-7.9,4.4c-1.8,2.8-2.6,6-2.6,9.7c0,3.9,0.9,7.2,2.7,9.9c1.8,2.8,4.4,4.2,7.8,4.2
		c3.6-0.1,6.3-1.5,8.1-4.4c1.7-2.7,2.6-5.9,2.6-9.7s-0.9-7.1-2.6-9.8C41.2,15.6,38.5,14.2,34.9,14.1z"/>
</g>
</svg>
